<?xml version="1.0" encoding="UTF-8" standalone="no"?>
<!DOCTYPE svg PUBLIC "-//W3C//DTD SVG 1.1//EN" "http://www.w3.org/Graphics/SVG/1.1/DTD/svg11.dtd">
<svg width="100%" height="100%" viewBox="0 0 220 92" version="1.1" xmlns="http://www.w3.org/2000/svg" xmlns:xlink="http://www.w3.org/1999/xlink" xml:space="preserve" xmlns:serif="http://www.serif.com/" style="fill-rule:evenodd;clip-rule:evenodd;stroke-linejoin:round;stroke-miterlimit:2;">
    <g transform="matrix(1,0,0,1,-2345.712143,-3578.728571)">
        <g transform="matrix(1,0,0,1.331481,960.228571,2381)">
            <g transform="matrix(1,0,0,0.751043,-2227,-923.031989)">
                <path d="M3644.778,2517C3657.619,2517 3663.976,2510.643 3663.976,2497.801L3663.976,2483.816C3663.976,2478.094 3661.306,2474.407 3655.839,2472.627L3654.059,2471.991L3654.059,2470.847L3655.839,2470.211C3661.306,2468.431 3663.849,2464.744 3663.849,2459.023L3663.976,2446.69C3663.976,2434.103 3657.874,2428 3645.286,2428L3612.484,2428L3612.484,2517L3644.778,2517ZM3636.005,2497.929L3636.005,2480.383L3638.166,2480.383C3639.692,2480.383 3640.455,2481.146 3640.455,2482.671L3640.455,2495.513C3640.455,2497.166 3639.692,2497.929 3638.039,2497.929L3636.005,2497.929ZM3636.005,2447.071L3638.039,2447.071C3639.692,2447.071 3640.455,2447.834 3640.455,2449.487L3640.455,2460.93C3640.455,2462.456 3639.692,2463.219 3638.166,2463.219L3636.005,2463.219L3636.005,2447.071Z" style="fill-rule:nonzero;"/>
                <path d="M3691.948,2488.011C3691.948,2486.994 3692.456,2486.486 3693.474,2486.486C3694.491,2486.486 3694.999,2486.994 3695.126,2488.011L3697.034,2517L3721.699,2517L3718.139,2491.699C3717.376,2486.359 3715.088,2482.926 3711.019,2481.273C3716.995,2477.713 3719.919,2471.229 3719.919,2461.693L3719.919,2450.759C3719.919,2435.501 3712.418,2428 3697.161,2428L3668.426,2428L3668.426,2517L3691.948,2517L3691.948,2488.011ZM3691.948,2450.123C3691.948,2448.597 3692.711,2447.961 3694.236,2447.961C3695.762,2447.961 3696.398,2448.597 3696.398,2450.123L3696.398,2466.143C3696.398,2467.669 3695.762,2468.304 3694.236,2468.304C3692.711,2468.304 3691.948,2467.669 3691.948,2466.143L3691.948,2450.123Z" style="fill-rule:nonzero;"/>
                <path d="M3752.341,2518.271C3767.598,2518.271 3775.099,2510.77 3775.099,2495.513L3775.099,2449.487C3775.099,2434.23 3767.598,2426.729 3752.341,2426.729L3746.365,2426.729C3731.108,2426.729 3723.606,2434.23 3723.606,2449.487L3723.606,2495.513C3723.606,2510.77 3731.108,2518.271 3746.365,2518.271L3752.341,2518.271ZM3747.128,2447.834C3747.128,2446.309 3747.891,2445.673 3749.416,2445.673C3750.942,2445.673 3751.578,2446.309 3751.578,2447.834L3751.578,2496.53C3751.578,2498.056 3750.942,2498.691 3749.416,2498.691C3747.891,2498.691 3747.128,2498.056 3747.128,2496.53L3747.128,2447.834Z" style="fill-rule:nonzero;"/>
                <path d="M3802.308,2488.011C3802.308,2486.994 3802.816,2486.486 3803.834,2486.486C3804.851,2486.486 3805.359,2486.994 3805.486,2488.011L3807.394,2517L3832.059,2517L3828.499,2491.699C3827.736,2486.359 3825.448,2482.926 3821.379,2481.273C3827.355,2477.713 3830.279,2471.229 3830.279,2461.693L3830.279,2450.759C3830.279,2435.501 3822.778,2428 3807.521,2428L3778.786,2428L3778.786,2517L3802.308,2517L3802.308,2488.011ZM3802.308,2450.123C3802.308,2448.597 3803.071,2447.961 3804.596,2447.961C3806.122,2447.961 3806.758,2448.597 3806.758,2450.123L3806.758,2466.143C3806.758,2467.669 3806.122,2468.304 3804.596,2468.304C3803.071,2468.304 3802.308,2467.669 3802.308,2466.143L3802.308,2450.123Z" style="fill-rule:nonzero;"/>
            </g>
        </g>
    </g>
</svg>
